<svg xmlns="http://www.w3.org/2000/svg" width="1.774" height="1.682" viewBox="0 0 1.774 1.682">
  <g id="Icon_ionic-ios-swap" data-name="Icon ionic-ios-swap" transform="translate(-4.468 -0.703)">
    <path id="Path_2" data-name="Path 2" d="M.193,17.791a.062.062,0,0,1,0-.088l.117-.191H-.849c-.035,0-.091-.067-.091-.1s.056-.106.091-.106H.31l-.117-.185a.062.062,0,0,1,.089-.088l.331.336h0a.061.061,0,0,1,.013.02.059.059,0,0,1,0,.024.062.062,0,0,1-.018.044l-.331.336A.062.062,0,0,1,.193,17.791Z" transform="translate(5.612 -15.423)" fill="#091b4a"/>
    <path id="Path_3" data-name="Path 3" d="M1.133.778a.062.062,0,0,1,0-.088L1.249.5H.091C.056.5,0,.432,0,.4S.056.291.091.291H1.249L1.132.106A.062.062,0,0,1,1.221.018l.331.336h0a.061.061,0,0,1,.013.02A.059.059,0,0,1,1.57.4a.062.062,0,0,1-.018.044L1.221.777A.062.062,0,0,1,1.133.778Z" transform="translate(6.038 1.499) rotate(180)" fill="#091b4a"/>
  </g>
</svg>
